<?xml version="1.0" standalone="no"?><!DOCTYPE svg PUBLIC "-//W3C//DTD SVG 1.1//EN" "http://www.w3.org/Graphics/SVG/1.1/DTD/svg11.dtd"><svg t="1512718014264" class="icon" style="" viewBox="0 0 1024 1024" version="1.1" xmlns="http://www.w3.org/2000/svg" p-id="1986" xmlns:xlink="http://www.w3.org/1999/xlink" width="200" height="200"><defs><style type="text/css"></style></defs><path d="M936.0896 904.92928a17.46432 17.46432 0 0 1-24.62208 0l-90.58816-90.17856a226.06336 226.06336 0 0 0 24.61184-24.50432l90.5984 90.18368a17.28 17.28 0 0 1 0 24.4992z m-253.31712-61.57824c-105.728 0-191.44192-85.3248-191.44192-190.58688 0-105.24672 85.7088-190.5664 191.44192-190.5664 105.74336 0 191.45728 85.3248 191.45728 190.5664-0.00512 105.26208-85.71392 190.58688-191.45728 190.58688z m0-346.50624c-86.50752 0-156.63616 69.8112-156.63616 155.91936 0 86.12352 70.12864 155.93472 156.63616 155.93472 86.51776 0 156.65152-69.8112 156.65152-155.93472-0.00512-86.10816-70.13376-155.91936-156.65152-155.91936z m-121.8304 155.91936c0-5.89312 0.57856-11.64288 1.38752-17.32096h137.85088v34.65216H562.3296c-0.80896-5.66784-1.38752-11.42784-1.38752-17.3312z m121.8304-121.2672c5.92896 0 11.71456 0.5632 17.408 1.37728v33.27488h-102.58944a121.65632 121.65632 0 0 1 85.18144-34.65216z m-365.48608 138.5984v-34.65216h140.1088c-0.44032 5.73952-0.8704 11.47392-0.8704 17.32096 0 5.85728 0.43008 11.59168 0.8704 17.3312H317.2864z m156.63104-112.90112H317.2864v-34.64704h175.04256c-7.07072 10.97216-13.312 22.49728-18.41152 34.64704zM317.2864 296.7552h174.04416v34.65216H317.2864V296.7552z m174.04416 147.54304H317.2864V409.6512h174.04416v34.64704z m295.87456-70.43072h-139.2384c-38.4512 0-69.61664-31.0272-69.61664-69.29408V148.64384H265.07264c-19.2256 0-34.81088 15.5136-34.81088 34.64704v591.31904c0 19.13344 15.58528 34.65216 34.81088 34.65216h257.5872c9.96864 12.68736 21.14048 24.3712 33.57184 34.65216H265.07264c-38.4512 0-69.62176-31.0272-69.62176-69.2992V183.29088c0-38.272 31.17056-69.2992 69.62176-69.2992h337.00864l214.83008 230.30272-1.05984 6.12864 6.15424 6.1184V475.48928a227.54304 227.54304 0 0 0-34.80576-22.4V373.86752z m-174.04416-196.43904v127.14496c0 19.13344 15.58016 34.64704 34.80576 34.64704h117.57056l-152.37632-161.792z" p-id="1987"></path></svg>