<?xml version="1.0" standalone="no"?><!DOCTYPE svg PUBLIC "-//W3C//DTD SVG 1.1//EN" "http://www.w3.org/Graphics/SVG/1.1/DTD/svg11.dtd"><svg t="1513135035927" class="icon" style="" viewBox="0 0 1024 1024" version="1.1" xmlns="http://www.w3.org/2000/svg" p-id="3142" xmlns:xlink="http://www.w3.org/1999/xlink" width="200" height="200"><defs><style type="text/css"></style></defs><path d="M887.880013 74.430841c21.92823 0 39.64715 21.387846 39.647151 47.83824v541.66426c0 26.421953-17.690479 47.83824-39.647151 47.83824H136.063104c-21.92823 0-39.590268-21.416287-39.590268-47.83824V122.24064c0-26.393512 17.662038-47.83824 39.590268-47.83824h751.816909m0-74.288635H136.063104c-61.888235 0-112.314632 54.863237-112.314632 122.155316v541.635818c0 67.32052 50.341073 122.212199 112.314632 122.212199h751.816909c61.916676 0 112.371514-54.806355 112.371515-122.212199V122.24064c0-67.292079-50.454838-122.126875-112.371515-122.126875" p-id="3143"></path><path d="M644.081324 1024h-271.841795c-23.407177 0-42.491279-18.287746-42.491279-40.784802v-225.425619h356.824353v225.425619c0 22.610821-19.084102 40.784802-42.491279 40.784802m-352.131541-64.106655h-207.848905c-19.652927 0-35.551605-15.244528-35.551606-34.129541v-0.711032c0-18.856571 15.984002-34.157982 35.551606-34.157983h207.848905v68.998556z m432.27908 0h207.877347c19.681369 0 35.580047-15.244528 35.580047-34.129541v-0.711032c0-18.856571-16.012443-34.157982-35.580047-34.157983h-207.877347v68.998556z m-249.714476-337.541162l-268.115987-197.894456a34.783691 34.783691 0 0 1-6.797467-50.141984 38.225086 38.225086 0 0 1 52.218198-6.513054l216.096878 159.555605 304.094212-294.168204a38.338851 38.338851 0 0 1 52.644817-0.199089 34.698367 34.698367 0 0 1 0.199089 50.511721l-350.33974 338.849461z" p-id="3144"></path></svg>