<?xml version="1.0" standalone="no"?><!DOCTYPE svg PUBLIC "-//W3C//DTD SVG 1.1//EN" "http://www.w3.org/Graphics/SVG/1.1/DTD/svg11.dtd"><svg t="1512638322166" class="icon" style="" viewBox="0 0 1024 1024" version="1.1" xmlns="http://www.w3.org/2000/svg" p-id="1443" xmlns:xlink="http://www.w3.org/1999/xlink" width="200" height="200"><defs><style type="text/css"></style></defs><path d="M677.547 148.773v0.121c-4.706-1.682-9.801-2.56-15.068-2.56-24.917 0-45.153 20.432-45.153 45.715 0 19.87 12.605 36.79 30.061 43.08v0.05C771.194 288.573 858.04 412.89 858.04 557.739c0 193.56-154.917 350.476-346.039 350.476s-346.039-156.94-346.039-350.5c0-144.848 86.845-269.166 210.652-322.56v-0.05c17.48-6.29 30.086-23.186 30.086-43.08 0-25.284-20.237-45.715-45.154-45.715-5.266 0-10.362 0.878-15.067 2.56v-0.097C187.563 214.82 75.654 373.029 75.654 557.714c0 244.054 195.34 441.905 436.346 441.905s436.346-197.851 436.346-441.905c0-184.685-111.909-342.893-270.8-408.941z" p-id="1444"></path><path d="M512 527.262c24.917 0 45.154-20.528 45.154-45.714V70.095c-0.05-25.258-20.237-45.714-45.154-45.714s-45.105 20.456-45.105 45.714V481.524c0 25.21 20.188 45.738 45.105 45.738z" p-id="1445"></path></svg>