<?xml version="1.0" standalone="no"?><!DOCTYPE svg PUBLIC "-//W3C//DTD SVG 1.1//EN" "http://www.w3.org/Graphics/SVG/1.1/DTD/svg11.dtd"><svg t="1513134983669" class="icon" style="" viewBox="0 0 1024 1024" version="1.1" xmlns="http://www.w3.org/2000/svg" p-id="2476" xmlns:xlink="http://www.w3.org/1999/xlink" width="200" height="200"><defs><style type="text/css"></style></defs><path d="M525.983 451.597c-19.474 0-38.122-3.903-52.517-10.992l-287.223-141.351c-19.666-9.668-31.012-25.195-31.123-42.591-0.111-17.588 11.299-33.499 31.301-43.656l290.246-147.384c15.278-7.757 35.006-12.029 55.555-12.029 19.474 0 38.126 3.903 52.522 10.992l287.232 141.355c19.661 9.672 31.003 25.195 31.114 42.586 0.111 17.587-11.294 33.499-31.291 43.656l-290.261 147.384c-15.269 7.757-35.006 12.029-55.555 12.029zM207.431 256.179l287.232 141.36c7.819 3.849 19.234 6.057 31.32 6.057 12.951 0 25.282-2.491 33.831-6.831l290.256-147.384c0.249-0.125 0.489-0.249 0.715-0.374l-287.237-141.355c-7.819-3.849-19.238-6.057-31.325-6.057-12.951 0-25.282 2.486-33.826 6.826l-290.251 147.389c-0.245 0.125-0.485 0.249-0.715 0.369v0z" p-id="2477"></path><path d="M466.337 970.409c-9.922 0-20.304-2.616-30.864-7.762l-0.619-0.317-256.642-134.664c-30.72-15.168-53.851-47.674-53.851-75.758v-362.971c0-25.44 18.672-43.901 44.391-43.901 9.922 0 20.304 2.616 30.864 7.771l0.624 0.312 256.637 134.664c30.725 15.163 53.861 47.674 53.861 75.758v362.971c-0.005 25.435-18.672 43.896-44.4 43.896zM456.819 919.645c2.395 1.152 4.358 1.829 5.899 2.223l0.019-358.32c0-7.752-10.872-24.788-27.259-32.794l-0.619-0.308-256.584-134.64c-2.391-1.148-4.354-1.824-5.889-2.217l-0.019 358.325c0 7.752 10.872 24.787 27.259 32.794l0.614 0.307 256.579 134.631z" p-id="2478"></path><path d="M604.348 970.409c-0.005 0-0.005 0 0 0-25.728 0-44.4-18.461-44.4-43.896v-362.971c0-28.089 23.126-60.595 53.851-75.758l257.266-134.981c10.555-5.155 20.937-7.771 30.864-7.771 25.718 0 44.391 18.466 44.391 43.901v362.971c0 28.089-23.126 60.591-53.856 75.758l-257.261 134.981c-10.551 5.151-20.933 7.766-30.854 7.766zM892.409 395.802l-257.203 134.952c-16.388 8.006-27.259 25.042-27.259 32.794v358.329c1.536-0.403 3.509-1.080 5.909-2.232l257.198-134.943c16.388-8.006 27.259-25.042 27.259-32.794v-358.334c-1.536 0.398-3.504 1.075-5.904 2.228z" p-id="2479"></path></svg>